# xmcd CD database file
#
# Track frame offsets:
#	150
#	12211
#	61336
#	97835
#	134164
#	181365
#	222854
#
# Disc length: 3423 seconds
#
# Revision: 0
# Processed by: cddbd v1.5.2PL0 Copyright (c) Steve Scherf et al.
# Submitted via: CDex 1.51
#
DISCID=5d0d5d07
DTITLE=Jimmy Smith - House Of Blues Cambridge CD1
DYEAR=1900
DGENRE=Jazz
TTITLE0=Intro Js Tells Ppl In The Back To Shutup
TTITLE1=Root Down 8 Counts For Rita
TTITLE2=The Sermon
TTITLE3=Guitar Solo (Improv)
TTITLE4=Back At The Chicken Shack
TTITLE5=Intro, Drum Solo, St. Thomas
TTITLE6=Dot Com Blues
EXTD=
EXTT0=
EXTT1=
EXTT2=
EXTT3=
EXTT4=
EXTT5=
EXTT6=
PLAYORDER=
